<mxfile host="app.diagrams.net" modified="2021-08-02T07:16:39.545Z" agent="5.0 (Windows NT 10.0; Win64; x64) AppleWebKit/537.36 (KHTML, like Gecko) Chrome/92.0.4515.107 Safari/537.36 Edg/92.0.902.62" etag="pTV4aLtSysg3sKfx5vP9" version="14.9.3" type="github">
  <diagram id="NYKsRx9gthyVyD-9QHaV" name="Page-1">
    <mxGraphModel dx="1422" dy="762" grid="1" gridSize="10" guides="1" tooltips="1" connect="1" arrows="1" fold="1" page="1" pageScale="1" pageWidth="827" pageHeight="1169" math="0" shadow="0">
      <root>
        <mxCell id="0" />
        <mxCell id="1" parent="0" />
        <mxCell id="SDYk8r2J29U1VIkxYxzF-1" style="edgeStyle=orthogonalEdgeStyle;rounded=0;html=1;exitX=0.5;exitY=1;exitPerimeter=0;jettySize=auto;orthogonalLoop=1;strokeColor=#66B2FF;fontSize=12;" edge="1" parent="1" source="SDYk8r2J29U1VIkxYxzF-2" target="SDYk8r2J29U1VIkxYxzF-21">
          <mxGeometry relative="1" as="geometry" />
        </mxCell>
        <mxCell id="SDYk8r2J29U1VIkxYxzF-2" value="用户进入小程序" style="strokeWidth=2;html=1;shape=mxgraph.flowchart.start_1;whiteSpace=wrap;fillColor=#FFFFFF;fontSize=12;" vertex="1" parent="1">
          <mxGeometry x="580" y="210" width="100" height="60" as="geometry" />
        </mxCell>
        <mxCell id="SDYk8r2J29U1VIkxYxzF-3" style="edgeStyle=orthogonalEdgeStyle;rounded=0;html=1;exitX=0.5;exitY=1;exitPerimeter=0;entryX=0.5;entryY=0;entryPerimeter=0;jettySize=auto;orthogonalLoop=1;strokeColor=#66B2FF;fontSize=12;" edge="1" parent="1" source="SDYk8r2J29U1VIkxYxzF-4">
          <mxGeometry relative="1" as="geometry">
            <mxPoint x="630" y="530" as="targetPoint" />
          </mxGeometry>
        </mxCell>
        <mxCell id="SDYk8r2J29U1VIkxYxzF-4" value="获取小程序用户标签" style="strokeWidth=2;html=1;shape=mxgraph.flowchart.process;whiteSpace=wrap;fillColor=#FFFFFF;fontSize=12;" vertex="1" parent="1">
          <mxGeometry x="580" y="430" width="100" height="60" as="geometry" />
        </mxCell>
        <mxCell id="SDYk8r2J29U1VIkxYxzF-5" value="是" style="edgeStyle=orthogonalEdgeStyle;rounded=0;html=1;exitX=0.5;exitY=1;exitPerimeter=0;jettySize=auto;orthogonalLoop=1;strokeColor=#66B2FF;fontSize=12;entryX=0.5;entryY=0;entryPerimeter=0;" edge="1" parent="1" source="SDYk8r2J29U1VIkxYxzF-7" target="SDYk8r2J29U1VIkxYxzF-10">
          <mxGeometry relative="1" as="geometry">
            <mxPoint x="630" y="810" as="targetPoint" />
            <Array as="points" />
          </mxGeometry>
        </mxCell>
        <mxCell id="SDYk8r2J29U1VIkxYxzF-6" value="否" style="edgeStyle=orthogonalEdgeStyle;rounded=0;html=1;exitX=0;exitY=0.5;exitPerimeter=0;entryX=1;entryY=0.5;entryPerimeter=0;jettySize=auto;orthogonalLoop=1;strokeColor=#66B2FF;fontSize=12;fontColor=#000000;" edge="1" parent="1" source="SDYk8r2J29U1VIkxYxzF-7" target="SDYk8r2J29U1VIkxYxzF-14">
          <mxGeometry relative="1" as="geometry" />
        </mxCell>
        <mxCell id="SDYk8r2J29U1VIkxYxzF-7" value="&lt;span&gt;获取当前标签是否有进行中的计划&lt;/span&gt;" style="strokeWidth=2;html=1;shape=mxgraph.flowchart.decision;whiteSpace=wrap;fillColor=#FFFFFF;fontSize=12;" vertex="1" parent="1">
          <mxGeometry x="550" y="650" width="160" height="80" as="geometry" />
        </mxCell>
        <mxCell id="SDYk8r2J29U1VIkxYxzF-8" value="是" style="edgeStyle=orthogonalEdgeStyle;rounded=0;html=1;exitX=0.5;exitY=1;exitPerimeter=0;jettySize=auto;orthogonalLoop=1;strokeColor=#66B2FF;fontSize=12;" edge="1" parent="1" source="SDYk8r2J29U1VIkxYxzF-10" target="SDYk8r2J29U1VIkxYxzF-12">
          <mxGeometry relative="1" as="geometry" />
        </mxCell>
        <mxCell id="SDYk8r2J29U1VIkxYxzF-9" value="否" style="edgeStyle=orthogonalEdgeStyle;rounded=0;html=1;exitX=1;exitY=0.5;exitPerimeter=0;entryX=0;entryY=0.5;entryPerimeter=0;jettySize=auto;orthogonalLoop=1;strokeColor=#66B2FF;fontSize=12;" edge="1" parent="1" source="SDYk8r2J29U1VIkxYxzF-10" target="SDYk8r2J29U1VIkxYxzF-26">
          <mxGeometry relative="1" as="geometry" />
        </mxCell>
        <mxCell id="SDYk8r2J29U1VIkxYxzF-10" value="用户条件是是否符合计划中的条件&lt;br&gt;" style="strokeWidth=2;html=1;shape=mxgraph.flowchart.decision;whiteSpace=wrap;fillColor=#FFFFFF;fontSize=12;" vertex="1" parent="1">
          <mxGeometry x="550" y="775" width="160" height="80" as="geometry" />
        </mxCell>
        <mxCell id="SDYk8r2J29U1VIkxYxzF-11" style="edgeStyle=orthogonalEdgeStyle;rounded=0;html=1;exitX=0.5;exitY=1;exitPerimeter=0;entryX=0;entryY=0.5;entryPerimeter=0;jettySize=auto;orthogonalLoop=1;strokeColor=#66B2FF;fontSize=12;" edge="1" parent="1" source="SDYk8r2J29U1VIkxYxzF-12" target="SDYk8r2J29U1VIkxYxzF-23">
          <mxGeometry relative="1" as="geometry" />
        </mxCell>
        <mxCell id="SDYk8r2J29U1VIkxYxzF-12" value="返回新人活动素材页地址" style="strokeWidth=2;html=1;shape=mxgraph.flowchart.process;whiteSpace=wrap;fillColor=#FFFFFF;fontSize=12;" vertex="1" parent="1">
          <mxGeometry x="580" y="890" width="100" height="60" as="geometry" />
        </mxCell>
        <mxCell id="SDYk8r2J29U1VIkxYxzF-13" value="是" style="edgeStyle=orthogonalEdgeStyle;rounded=0;html=1;exitX=0.5;exitY=1;exitPerimeter=0;entryX=0;entryY=0.5;entryPerimeter=0;jettySize=auto;orthogonalLoop=1;strokeColor=#66B2FF;fontSize=12;fontColor=#000000;" edge="1" parent="1" source="SDYk8r2J29U1VIkxYxzF-14" target="SDYk8r2J29U1VIkxYxzF-10">
          <mxGeometry relative="1" as="geometry" />
        </mxCell>
        <mxCell id="SDYk8r2J29U1VIkxYxzF-14" value="默认方案" style="strokeWidth=2;html=1;shape=mxgraph.flowchart.process;whiteSpace=wrap;fillColor=#FFFFFF;fontSize=12;" vertex="1" parent="1">
          <mxGeometry x="405" y="660" width="100" height="60" as="geometry" />
        </mxCell>
        <mxCell id="SDYk8r2J29U1VIkxYxzF-15" value="" style="strokeWidth=2;html=1;shape=mxgraph.flowchart.annotation_2;align=left;fillColor=#FFFFFF;fontSize=12;direction=west;" vertex="1" parent="1">
          <mxGeometry x="355" y="640" width="50" height="100" as="geometry" />
        </mxCell>
        <mxCell id="SDYk8r2J29U1VIkxYxzF-16" value="&lt;p&gt;&amp;nbsp;&amp;nbsp;①注册大于3天用户&lt;/p&gt;&lt;p&gt;&amp;nbsp; ②未充值k币用户&lt;/p&gt;" style="text;html=1;resizable=0;points=[];autosize=1;align=left;verticalAlign=top;spacingTop=-4;fontSize=12;" vertex="1" parent="1">
          <mxGeometry x="250" y="655" width="120" height="70" as="geometry" />
        </mxCell>
        <mxCell id="SDYk8r2J29U1VIkxYxzF-17" value="" style="strokeWidth=2;html=1;shape=mxgraph.flowchart.annotation_2;align=left;fillColor=#FFFFFF;fontSize=12;" vertex="1" parent="1">
          <mxGeometry x="710" y="300" width="50" height="100" as="geometry" />
        </mxCell>
        <mxCell id="SDYk8r2J29U1VIkxYxzF-18" value="活动开关交由前端控制" style="text;html=1;resizable=0;points=[];autosize=1;align=left;verticalAlign=top;spacingTop=-4;fontSize=12;" vertex="1" parent="1">
          <mxGeometry x="753" y="340" width="140" height="20" as="geometry" />
        </mxCell>
        <mxCell id="SDYk8r2J29U1VIkxYxzF-19" value="是" style="edgeStyle=orthogonalEdgeStyle;rounded=0;html=1;exitX=0.5;exitY=1;exitPerimeter=0;entryX=0.5;entryY=0;entryPerimeter=0;jettySize=auto;orthogonalLoop=1;strokeColor=#66B2FF;fontSize=12;" edge="1" parent="1" source="SDYk8r2J29U1VIkxYxzF-21" target="SDYk8r2J29U1VIkxYxzF-4">
          <mxGeometry relative="1" as="geometry" />
        </mxCell>
        <mxCell id="SDYk8r2J29U1VIkxYxzF-20" value="否" style="edgeStyle=orthogonalEdgeStyle;rounded=0;html=1;exitX=0;exitY=0.5;exitPerimeter=0;jettySize=auto;orthogonalLoop=1;strokeColor=#66B2FF;fontSize=12;" edge="1" parent="1" source="SDYk8r2J29U1VIkxYxzF-21" target="SDYk8r2J29U1VIkxYxzF-22">
          <mxGeometry relative="1" as="geometry" />
        </mxCell>
        <mxCell id="SDYk8r2J29U1VIkxYxzF-21" value="判断小程序中活动开关是否开启&lt;br&gt;" style="strokeWidth=2;html=1;shape=mxgraph.flowchart.decision;whiteSpace=wrap;fillColor=#FFFFFF;fontSize=12;" vertex="1" parent="1">
          <mxGeometry x="550" y="310" width="160" height="80" as="geometry" />
        </mxCell>
        <mxCell id="SDYk8r2J29U1VIkxYxzF-22" value="不请求获取素材地址接口" style="strokeWidth=2;html=1;shape=mxgraph.flowchart.terminator;whiteSpace=wrap;fillColor=#FFFFFF;fontSize=12;" vertex="1" parent="1">
          <mxGeometry x="400" y="320" width="100" height="60" as="geometry" />
        </mxCell>
        <mxCell id="SDYk8r2J29U1VIkxYxzF-23" value="展示活动UI" style="strokeWidth=2;html=1;shape=mxgraph.flowchart.terminator;whiteSpace=wrap;fillColor=#FFFFFF;fontSize=12;" vertex="1" parent="1">
          <mxGeometry x="855" y="1040" width="100" height="60" as="geometry" />
        </mxCell>
        <mxCell id="SDYk8r2J29U1VIkxYxzF-24" value="是" style="edgeStyle=orthogonalEdgeStyle;rounded=0;html=1;exitX=1;exitY=0.5;exitPerimeter=0;entryX=0.5;entryY=0;entryPerimeter=0;jettySize=auto;orthogonalLoop=1;strokeColor=#66B2FF;fontSize=12;" edge="1" parent="1" source="SDYk8r2J29U1VIkxYxzF-26" target="SDYk8r2J29U1VIkxYxzF-28">
          <mxGeometry relative="1" as="geometry" />
        </mxCell>
        <mxCell id="SDYk8r2J29U1VIkxYxzF-25" value="否" style="edgeStyle=orthogonalEdgeStyle;rounded=0;html=1;exitX=0.5;exitY=1;exitPerimeter=0;jettySize=auto;orthogonalLoop=1;strokeColor=#66B2FF;fontSize=12;" edge="1" parent="1" source="SDYk8r2J29U1VIkxYxzF-26" target="SDYk8r2J29U1VIkxYxzF-27">
          <mxGeometry relative="1" as="geometry" />
        </mxCell>
        <mxCell id="SDYk8r2J29U1VIkxYxzF-26" value="判断用户今天是否签到&lt;br&gt;" style="strokeWidth=2;html=1;shape=mxgraph.flowchart.decision;whiteSpace=wrap;fillColor=#FFFFFF;fontSize=12;" vertex="1" parent="1">
          <mxGeometry x="950" y="770" width="160" height="90" as="geometry" />
        </mxCell>
        <mxCell id="SDYk8r2J29U1VIkxYxzF-27" value="展示签到UI" style="strokeWidth=2;html=1;shape=mxgraph.flowchart.terminator;whiteSpace=wrap;fillColor=#FFFFFF;fontSize=12;" vertex="1" parent="1">
          <mxGeometry x="980" y="1040" width="100" height="60" as="geometry" />
        </mxCell>
        <mxCell id="SDYk8r2J29U1VIkxYxzF-28" value="展示已签到UI" style="strokeWidth=2;html=1;shape=mxgraph.flowchart.terminator;whiteSpace=wrap;fillColor=#FFFFFF;fontSize=12;" vertex="1" parent="1">
          <mxGeometry x="1090" y="1040" width="100" height="60" as="geometry" />
        </mxCell>
        <mxCell id="SDYk8r2J29U1VIkxYxzF-29" style="edgeStyle=orthogonalEdgeStyle;rounded=0;html=1;exitX=0.5;exitY=1;exitPerimeter=0;entryX=0.5;entryY=0;entryPerimeter=0;jettySize=auto;orthogonalLoop=1;strokeColor=#66B2FF;fontSize=12;" edge="1" parent="1" source="SDYk8r2J29U1VIkxYxzF-31">
          <mxGeometry relative="1" as="geometry">
            <mxPoint x="1525" y="320" as="targetPoint" />
          </mxGeometry>
        </mxCell>
        <mxCell id="SDYk8r2J29U1VIkxYxzF-30" style="edgeStyle=orthogonalEdgeStyle;rounded=0;html=1;exitX=0.5;exitY=1;exitPerimeter=0;entryX=0.5;entryY=0;entryPerimeter=0;jettySize=auto;orthogonalLoop=1;strokeColor=#66B2FF;fontSize=12;" edge="1" parent="1" source="SDYk8r2J29U1VIkxYxzF-31">
          <mxGeometry relative="1" as="geometry">
            <mxPoint x="1715" y="320" as="targetPoint" />
          </mxGeometry>
        </mxCell>
        <mxCell id="SDYk8r2J29U1VIkxYxzF-31" value="公众号聊天会话" style="strokeWidth=2;html=1;shape=mxgraph.flowchart.start_1;whiteSpace=wrap;fillColor=#FFFFFF;fontSize=12;" vertex="1" parent="1">
          <mxGeometry x="1565" y="210" width="100" height="60" as="geometry" />
        </mxCell>
        <mxCell id="SDYk8r2J29U1VIkxYxzF-32" style="edgeStyle=orthogonalEdgeStyle;rounded=0;html=1;exitX=0.5;exitY=1;exitPerimeter=0;jettySize=auto;orthogonalLoop=1;strokeColor=#66B2FF;fontSize=12;" edge="1" parent="1" target="SDYk8r2J29U1VIkxYxzF-35">
          <mxGeometry relative="1" as="geometry">
            <mxPoint x="1525" y="380" as="sourcePoint" />
          </mxGeometry>
        </mxCell>
        <mxCell id="SDYk8r2J29U1VIkxYxzF-33" style="edgeStyle=orthogonalEdgeStyle;rounded=0;html=1;exitX=0.5;exitY=1;exitPerimeter=0;jettySize=auto;orthogonalLoop=1;strokeColor=#66B2FF;fontSize=12;" edge="1" parent="1" target="SDYk8r2J29U1VIkxYxzF-42">
          <mxGeometry relative="1" as="geometry">
            <mxPoint x="1715" y="380" as="sourcePoint" />
          </mxGeometry>
        </mxCell>
        <mxCell id="SDYk8r2J29U1VIkxYxzF-34" style="edgeStyle=orthogonalEdgeStyle;rounded=0;html=1;exitX=0;exitY=0.5;exitPerimeter=0;entryX=1;entryY=0.5;entryPerimeter=0;jettySize=auto;orthogonalLoop=1;strokeColor=#66B2FF;fontSize=12;" edge="1" parent="1" source="SDYk8r2J29U1VIkxYxzF-35" target="SDYk8r2J29U1VIkxYxzF-56">
          <mxGeometry relative="1" as="geometry">
            <mxPoint x="1420" y="460" as="targetPoint" />
            <Array as="points" />
          </mxGeometry>
        </mxCell>
        <mxCell id="SDYk8r2J29U1VIkxYxzF-35" value="仅能进行签到" style="strokeWidth=2;html=1;shape=mxgraph.flowchart.process;whiteSpace=wrap;fontSize=12;" vertex="1" parent="1">
          <mxGeometry x="1475" y="430" width="100" height="60" as="geometry" />
        </mxCell>
        <mxCell id="SDYk8r2J29U1VIkxYxzF-36" style="edgeStyle=orthogonalEdgeStyle;rounded=0;html=1;exitX=0.5;exitY=1;exitPerimeter=0;entryX=0.5;entryY=0;entryPerimeter=0;jettySize=auto;orthogonalLoop=1;strokeColor=#66B2FF;fontSize=12;" edge="1" parent="1" source="SDYk8r2J29U1VIkxYxzF-37" target="SDYk8r2J29U1VIkxYxzF-40">
          <mxGeometry relative="1" as="geometry" />
        </mxCell>
        <mxCell id="SDYk8r2J29U1VIkxYxzF-37" value="从签到后的小程序卡片可进行新人奖励的领取" style="strokeWidth=2;html=1;shape=mxgraph.flowchart.process;whiteSpace=wrap;fillColor=#FFFFFF;fontSize=12;" vertex="1" parent="1">
          <mxGeometry x="1475" y="530" width="100" height="60" as="geometry" />
        </mxCell>
        <mxCell id="SDYk8r2J29U1VIkxYxzF-38" value="奖励发放" style="strokeWidth=2;html=1;shape=mxgraph.flowchart.terminator;whiteSpace=wrap;fillColor=#FFFFFF;fontSize=12;" vertex="1" parent="1">
          <mxGeometry x="1565" y="910" width="100" height="60" as="geometry" />
        </mxCell>
        <mxCell id="SDYk8r2J29U1VIkxYxzF-39" style="edgeStyle=orthogonalEdgeStyle;rounded=0;html=1;exitX=0.5;exitY=1;exitPerimeter=0;entryX=0;entryY=0.5;entryPerimeter=0;jettySize=auto;orthogonalLoop=1;strokeColor=#66B2FF;fontSize=12;" edge="1" parent="1" source="SDYk8r2J29U1VIkxYxzF-40" target="SDYk8r2J29U1VIkxYxzF-38">
          <mxGeometry relative="1" as="geometry" />
        </mxCell>
        <mxCell id="SDYk8r2J29U1VIkxYxzF-40" value="回到小程序" style="strokeWidth=2;html=1;shape=mxgraph.flowchart.process;whiteSpace=wrap;fillColor=#FFFFFF;fontSize=12;" vertex="1" parent="1">
          <mxGeometry x="1475" y="625" width="100" height="60" as="geometry" />
        </mxCell>
        <mxCell id="SDYk8r2J29U1VIkxYxzF-41" style="edgeStyle=orthogonalEdgeStyle;rounded=0;html=1;exitX=0.5;exitY=1;exitPerimeter=0;entryX=1;entryY=0.5;entryPerimeter=0;jettySize=auto;orthogonalLoop=1;strokeColor=#66B2FF;fontSize=12;" edge="1" parent="1" source="SDYk8r2J29U1VIkxYxzF-42" target="SDYk8r2J29U1VIkxYxzF-40">
          <mxGeometry relative="1" as="geometry" />
        </mxCell>
        <mxCell id="SDYk8r2J29U1VIkxYxzF-42" value="返回‘点击这里返回小程序的’小程序卡片" style="strokeWidth=2;html=1;shape=mxgraph.flowchart.process;whiteSpace=wrap;fillColor=#FFFFFF;fontSize=12;" vertex="1" parent="1">
          <mxGeometry x="1665" y="430" width="100" height="60" as="geometry" />
        </mxCell>
        <mxCell id="SDYk8r2J29U1VIkxYxzF-43" style="edgeStyle=orthogonalEdgeStyle;rounded=0;html=1;exitX=1;exitY=0.5;exitPerimeter=0;entryX=0;entryY=0.5;entryPerimeter=0;jettySize=auto;orthogonalLoop=1;strokeColor=#66B2FF;fontSize=12;" edge="1" parent="1" source="SDYk8r2J29U1VIkxYxzF-44" target="SDYk8r2J29U1VIkxYxzF-37">
          <mxGeometry relative="1" as="geometry" />
        </mxCell>
        <mxCell id="SDYk8r2J29U1VIkxYxzF-44" value="返回小程序卡片" style="strokeWidth=2;html=1;shape=mxgraph.flowchart.process;whiteSpace=wrap;fillColor=#FFFFFF;fontSize=12;" vertex="1" parent="1">
          <mxGeometry x="1320" y="530" width="100" height="60" as="geometry" />
        </mxCell>
        <mxCell id="SDYk8r2J29U1VIkxYxzF-45" value="标记小程序用户标签类型" style="shape=note;whiteSpace=wrap;html=1;fontSize=12;" vertex="1" parent="1">
          <mxGeometry x="1110" y="410" width="80" height="100" as="geometry" />
        </mxCell>
        <mxCell id="SDYk8r2J29U1VIkxYxzF-46" style="edgeStyle=orthogonalEdgeStyle;rounded=0;html=1;exitX=1;exitY=0.5;exitPerimeter=0;entryX=1;entryY=0.5;entryPerimeter=0;jettySize=auto;orthogonalLoop=1;strokeColor=#66B2FF;fontSize=12;fontColor=#00FFFF;" edge="1" parent="1" source="SDYk8r2J29U1VIkxYxzF-4" target="SDYk8r2J29U1VIkxYxzF-4">
          <mxGeometry relative="1" as="geometry" />
        </mxCell>
        <mxCell id="SDYk8r2J29U1VIkxYxzF-47" value="" style="endArrow=none;dashed=1;html=1;strokeColor=#66B2FF;fontSize=12;fontColor=#00FFFF;entryX=0;entryY=0.5;exitX=1;exitY=0.5;exitPerimeter=0;" edge="1" parent="1" source="SDYk8r2J29U1VIkxYxzF-4" target="SDYk8r2J29U1VIkxYxzF-45">
          <mxGeometry width="50" height="50" relative="1" as="geometry">
            <mxPoint x="400" y="1040" as="sourcePoint" />
            <mxPoint x="450" y="990" as="targetPoint" />
            <Array as="points" />
          </mxGeometry>
        </mxCell>
        <mxCell id="SDYk8r2J29U1VIkxYxzF-48" value="&lt;font color=&quot;#000000&quot;&gt;用户点击时，上报用户点击记录。以便用户返回小程序后，能直接获取对应奖励。&lt;/font&gt;" style="shape=note;whiteSpace=wrap;html=1;strokeColor=#3399FF;fillColor=#FFFFFF;fontSize=12;fontColor=#00FFFF;" vertex="1" parent="1">
          <mxGeometry x="410" y="870" width="110" height="140" as="geometry" />
        </mxCell>
        <mxCell id="SDYk8r2J29U1VIkxYxzF-49" value="否" style="edgeStyle=orthogonalEdgeStyle;rounded=0;html=1;exitX=0.5;exitY=1;exitPerimeter=0;jettySize=auto;orthogonalLoop=1;strokeColor=#66B2FF;fontSize=12;fontColor=#000000;" edge="1" parent="1" source="SDYk8r2J29U1VIkxYxzF-51" target="SDYk8r2J29U1VIkxYxzF-7">
          <mxGeometry relative="1" as="geometry" />
        </mxCell>
        <mxCell id="SDYk8r2J29U1VIkxYxzF-50" value="是" style="edgeStyle=orthogonalEdgeStyle;rounded=0;html=1;exitX=1;exitY=0.5;exitPerimeter=0;entryX=0.5;entryY=0;entryPerimeter=0;jettySize=auto;orthogonalLoop=1;strokeColor=#66B2FF;fontSize=12;fontColor=#000000;" edge="1" parent="1" source="SDYk8r2J29U1VIkxYxzF-51" target="SDYk8r2J29U1VIkxYxzF-26">
          <mxGeometry relative="1" as="geometry" />
        </mxCell>
        <mxCell id="SDYk8r2J29U1VIkxYxzF-51" value="&lt;span&gt;判断当前用户是否获取过新人奖励&lt;/span&gt;" style="strokeWidth=2;html=1;shape=mxgraph.flowchart.decision;whiteSpace=wrap;fillColor=#FFFFFF;fontSize=12;" vertex="1" parent="1">
          <mxGeometry x="550" y="530" width="160" height="80" as="geometry" />
        </mxCell>
        <mxCell id="SDYk8r2J29U1VIkxYxzF-52" value="" style="endArrow=none;dashed=1;html=1;strokeColor=#66B2FF;fontSize=12;fontColor=#00FFFF;exitX=1;exitY=0.5;" edge="1" parent="1" source="SDYk8r2J29U1VIkxYxzF-48">
          <mxGeometry width="50" height="50" relative="1" as="geometry">
            <mxPoint x="690" y="470" as="sourcePoint" />
            <mxPoint x="580" y="920" as="targetPoint" />
            <Array as="points" />
          </mxGeometry>
        </mxCell>
        <mxCell id="SDYk8r2J29U1VIkxYxzF-53" value="" style="endArrow=none;dashed=1;html=1;strokeColor=#66B2FF;fontSize=12;fontColor=#00FFFF;entryX=1;entryY=0.5;entryPerimeter=0;exitX=0;exitY=0.5;" edge="1" parent="1" source="SDYk8r2J29U1VIkxYxzF-54" target="SDYk8r2J29U1VIkxYxzF-38">
          <mxGeometry width="50" height="50" relative="1" as="geometry">
            <mxPoint x="1730" y="985" as="sourcePoint" />
            <mxPoint x="1575" y="870" as="targetPoint" />
            <Array as="points" />
          </mxGeometry>
        </mxCell>
        <mxCell id="SDYk8r2J29U1VIkxYxzF-54" value="请求钱包系统进行奖励发放，记录发放唯一日志" style="shape=note;whiteSpace=wrap;html=1;strokeColor=#3399FF;fillColor=#FFFFFF;fontSize=12;fontColor=#000000;" vertex="1" parent="1">
          <mxGeometry x="1765" y="890" width="95" height="100" as="geometry" />
        </mxCell>
        <mxCell id="SDYk8r2J29U1VIkxYxzF-55" style="edgeStyle=orthogonalEdgeStyle;rounded=0;html=1;exitX=0.5;exitY=1;exitPerimeter=0;entryX=0.5;entryY=0;entryPerimeter=0;jettySize=auto;orthogonalLoop=1;strokeColor=#66B2FF;fontSize=12;fontColor=#000000;" edge="1" parent="1" source="SDYk8r2J29U1VIkxYxzF-56" target="SDYk8r2J29U1VIkxYxzF-44">
          <mxGeometry relative="1" as="geometry" />
        </mxCell>
        <mxCell id="SDYk8r2J29U1VIkxYxzF-56" value="签到（签到流程结束）签到奖励发放" style="strokeWidth=2;html=1;shape=mxgraph.flowchart.predefined_process;whiteSpace=wrap;fillColor=#ffffff;fontSize=12;strokeColor=#000000;" vertex="1" parent="1">
          <mxGeometry x="1320" y="430" width="100" height="60" as="geometry" />
        </mxCell>
        <mxCell id="SDYk8r2J29U1VIkxYxzF-57" value="已关注" style="strokeWidth=2;html=1;shape=mxgraph.flowchart.process;whiteSpace=wrap;fillColor=#FFFFFF;fontSize=12;" vertex="1" parent="1">
          <mxGeometry x="1475" y="320" width="100" height="60" as="geometry" />
        </mxCell>
        <mxCell id="SDYk8r2J29U1VIkxYxzF-58" value="未关注" style="strokeWidth=2;html=1;shape=mxgraph.flowchart.process;whiteSpace=wrap;fillColor=#FFFFFF;fontSize=12;" vertex="1" parent="1">
          <mxGeometry x="1665" y="320" width="100" height="60" as="geometry" />
        </mxCell>
        <mxCell id="SDYk8r2J29U1VIkxYxzF-59" value="所有关注的用户全部都要发送小程序卡片客服消息" style="shape=note;whiteSpace=wrap;html=1;fontSize=12;" vertex="1" parent="1">
          <mxGeometry x="1910" y="300" width="80" height="100" as="geometry" />
        </mxCell>
        <mxCell id="SDYk8r2J29U1VIkxYxzF-60" value="" style="endArrow=none;dashed=1;html=1;strokeColor=#66B2FF;fontSize=12;fontColor=#00FFFF;entryX=1;entryY=0.5;entryPerimeter=0;exitX=0;exitY=0.5;" edge="1" parent="1" source="SDYk8r2J29U1VIkxYxzF-59" target="SDYk8r2J29U1VIkxYxzF-58">
          <mxGeometry width="50" height="50" relative="1" as="geometry">
            <mxPoint x="1775" y="950" as="sourcePoint" />
            <mxPoint x="1675" y="950" as="targetPoint" />
            <Array as="points" />
          </mxGeometry>
        </mxCell>
      </root>
    </mxGraphModel>
  </diagram>
</mxfile>
